<svg xmlns="http://www.w3.org/2000/svg" width="108" height="62" viewBox="0 0 108 62">
    <g fill="none" fill-rule="evenodd">
        <path fill="#498CF3" d="M7.1 51.078H0V24.442c0-.517.423-.935.944-.935h.342c.274 0 .534.118.714.323l2.058 2.354a12.456 12.456 0 0 1 3.888-2.382 12.535 12.535 0 0 1 4.54-.836c1.698 0 3.302.322 4.81.966a12.477 12.477 0 0 1 3.955 2.65 12.544 12.544 0 0 1 2.665 3.94c.65 1.502.975 3.102.975 4.802v15.754h-7.1V35.324a5.13 5.13 0 0 0-.416-2.047 5.289 5.289 0 0 0-1.145-1.686 5.405 5.405 0 0 0-1.69-1.133 5.162 5.162 0 0 0-2.055-.412 5.417 5.417 0 0 0-3.824 1.545 5.3 5.3 0 0 0-1.144 1.686 5.113 5.113 0 0 0-.417 2.047v15.754zM28.75 51.078h7.154v-27.57H28.75zM47.228 51.078h-7.101V24.442c0-.517.422-.935.944-.935h.34c.274 0 .535.118.714.323l2.06 2.354a12.438 12.438 0 0 1 3.888-2.382 12.535 12.535 0 0 1 4.539-.836c1.7 0 3.302.322 4.81.966a12.47 12.47 0 0 1 3.955 2.65 12.562 12.562 0 0 1 2.665 3.94c.65 1.502.977 3.102.977 4.802v15.754h-7.102V35.324c0-.722-.137-1.404-.415-2.047a5.303 5.303 0 0 0-1.145-1.686 5.442 5.442 0 0 0-1.69-1.133 5.167 5.167 0 0 0-2.055-.412 5.427 5.427 0 0 0-3.825 1.545 5.3 5.3 0 0 0-1.143 1.686 5.112 5.112 0 0 0-.416 2.047v15.754z"/>
        <path fill="#498CF3" d="M58.29 61.581v-7.078l3.929.051a6.12 6.12 0 0 0 2.652-.58 6.844 6.844 0 0 0 2.12-1.545 7.332 7.332 0 0 0 1.417-2.226c.347-.84.522-1.724.522-2.652V23.507h7.255v24.044h-.052a14.44 14.44 0 0 1-.533 3.734c-.337 1.2-.819 2.32-1.443 3.359a14.157 14.157 0 0 1-2.238 2.831 14.49 14.49 0 0 1-2.873 2.19 14.476 14.476 0 0 1-3.381 1.415 13.986 13.986 0 0 1-3.759.501h-3.615zM100.176 37.048c0-.96-.186-1.892-.56-2.793a7.986 7.986 0 0 0-1.52-2.394 7.542 7.542 0 0 0-2.251-1.673 6.14 6.14 0 0 0-2.744-.63c-.97 0-1.885.163-2.744.488a6.252 6.252 0 0 0-2.237 1.442c-.632.635-1.13 1.42-1.494 2.355-.365.936-.548 2.004-.548 3.205 0 1.202.183 2.27.548 3.205.364.937.862 1.72 1.494 2.356a6.235 6.235 0 0 0 2.237 1.441c.859.326 1.773.49 2.744.49.971 0 1.886-.21 2.744-.631a7.56 7.56 0 0 0 2.25-1.673 8.012 8.012 0 0 0 1.521-2.394c.374-.902.56-1.833.56-2.794m6.21 14.03h-.291a.95.95 0 0 1-.766-.387l-2.474-3.397c-.676.6-1.391 1.162-2.146 1.686-.754.524-1.547.978-2.38 1.364-.963.447-1.955.786-2.974 1.014a10.37 10.37 0 0 1-2.255.236c-1.959 0-3.8-.327-5.525-.98a13.111 13.111 0 0 1-4.526-2.844c-1.292-1.244-2.31-2.767-3.056-4.569s-1.12-3.853-1.12-6.153c0-2.145.374-4.115 1.12-5.908.746-1.793 1.764-3.334 3.056-4.62a13.816 13.816 0 0 1 4.526-3c1.725-.712 3.567-1.068 5.526-1.068.902 0 1.795.112 2.68.334.883.224 1.742.533 2.574.927.833.395 1.625.858 2.38 1.39.755.532 1.461 1.107 2.12 1.725l2.474-2.934a.95.95 0 0 1 .725-.336h.331a.94.94 0 0 1 .944.934v25.651a.94.94 0 0 1-.944.936"/>
        <path fill="#354052" d="M84.344 20.701H21.486a2.15 2.15 0 0 1-2.16-2.138v-2.26C19.326 7.298 26.701 0 35.798 0h34.234c9.097 0 16.472 7.299 16.472 16.302v2.261a2.15 2.15 0 0 1-2.16 2.138"/>
        <path fill="#FFF" d="M30.102 6.382c4.776-2.594 4.5 7.474 12.338 9.823.172.051.223.277.077.377-3.32 2.287-9.572 1.42-12.417-1.934-2.223-2.62-2.005-7.176.002-8.266M75.728 6.382c-4.776-2.594-4.5 7.474-12.34 9.823-.17.051-.222.277-.075.377 3.319 2.287 9.572 1.42 12.416-1.934 2.222-2.62 2.004-7.176-.001-8.266"/>
    </g>
</svg>
